<?xml version="1.0" encoding="UTF-8"?>
<svg id="_レイヤー_2" data-name="レイヤー 2" xmlns="http://www.w3.org/2000/svg" viewBox="0 0 503.411 600">
  <defs>
    <style>
      .cls-1 {
        fill: #f0ece5;
      }

      .cls-2 {
        stroke-width: 20.479px;
      }

      .cls-2, .cls-3 {
        fill: none;
        stroke: #f0ece5;
        stroke-miterlimit: 10;
      }

      .cls-3 {
        stroke-width: 20.479px;
      }
    </style>
  </defs>
  <g>
    <path class="cls-1" d="M159.637,457.196h8.476v-9.717h4.964v24.469h-4.964v-10.567h-8.476v10.567h-4.965v-24.469h4.965v9.717Z"/>
    <path class="cls-1" d="M179.101,471.948l8.511-24.469h4.752l8.511,24.469h-5.284l-1.489-4.646h-8.191l-1.489,4.646h-5.319Zm8.12-8.83h5.532l-2.766-8.617-2.767,8.617Z"/>
    <path class="cls-1" d="M212.218,471.948h-4.965v-24.469h4.965v24.469Z"/>
    <path class="cls-1" d="M234.45,471.948l-4.397-9.61h-3.972v9.61h-4.965v-24.469h8.759c5.639,0,9.149,2.519,9.149,7.482,0,3.298-1.524,5.461-4.185,6.561l5.071,10.426h-5.461Zm-5.036-13.795c2.943,0,4.646-.638,4.646-3.191s-1.702-3.262-4.646-3.262h-3.333v6.453h3.333Z"/>
  </g>
  <g>
    <path class="cls-1" d="M255.488,463.33v8.617h-4.965v-24.469h8.759c5.639,0,9.149,2.589,9.149,7.837,0,5.178-3.476,8.015-9.149,8.015h-3.794Zm3.085-4.185c3.44,0,4.894-1.205,4.894-3.83,0-2.34-1.453-3.616-4.894-3.616h-3.085v7.446h3.085Z"/>
    <path class="cls-1" d="M280.13,467.763h10.284v4.185h-15.249v-24.469h4.965v20.284Z"/>
    <path class="cls-1" d="M294.809,471.948l8.511-24.469h4.752l8.511,24.469h-5.284l-1.489-4.646h-8.191l-1.489,4.646h-5.319Zm8.12-8.83h5.532l-2.766-8.617-2.767,8.617Z"/>
    <path class="cls-1" d="M334.733,455.068c-.461-2.305-1.809-3.724-4.22-3.724-2.872,0-4.397,1.951-4.397,6.632v3.475c0,4.539,1.525,6.632,4.397,6.632,2.482,0,3.688-1.241,4.22-3.724h4.717c-.815,5.497-3.9,7.908-8.937,7.908-5.496,0-9.361-3.334-9.361-10.816v-3.475c0-7.554,3.865-10.815,9.361-10.815,4.858,0,8.156,2.553,8.972,7.907h-4.752Z"/>
    <path class="cls-1" d="M361.929,447.479v4.221h-10.284v5.496h9.22v4.185h-9.22v6.383h10.284v4.185h-15.249v-24.469h15.249Z"/>
  </g>
  <g>
    <path class="cls-1" d="M178.67,528.171l-6.241-10.319-2.908,3.83v6.489h-4.965v-24.469h4.965v10.568l7.73-10.568h5.887l-7.482,9.895,8.937,14.574h-5.922Z"/>
    <path class="cls-1" d="M188.027,528.171l8.511-24.469h4.752l8.511,24.469h-5.284l-1.489-4.646h-8.191l-1.489,4.646h-5.319Zm8.12-8.83h5.532l-2.766-8.617-2.767,8.617Z"/>
    <path class="cls-1" d="M226.534,517.036l6.809-13.334h4.716v24.469h-4.752v-15.178l-5.318,10.78h-3.015l-5.248-10.674v15.071h-4.717v-24.469h4.646l6.88,13.334Z"/>
    <path class="cls-1" d="M251.105,528.171h-4.965v-24.469h4.965v24.469Z"/>
    <path class="cls-1" d="M273.303,528.171l-6.241-10.319-2.908,3.83v6.489h-4.965v-24.469h4.965v10.568l7.73-10.568h5.887l-7.482,9.895,8.937,14.574h-5.922Z"/>
    <path class="cls-1" d="M292.519,528.491c-5.496,0-9.361-3.334-9.361-10.815v-3.476c0-7.554,3.865-10.815,9.361-10.815,5.532,0,9.397,3.262,9.397,10.815v3.476c0,7.481-3.865,10.815-9.397,10.815Zm-4.397-10.815c0,4.681,1.525,6.631,4.397,6.631s4.433-1.95,4.433-6.631v-3.476c0-4.681-1.561-6.632-4.433-6.632s-4.397,1.951-4.397,6.632v3.476Z"/>
    <path class="cls-1" d="M327.692,503.702v14.539c0,7.234-3.972,10.249-9.397,10.249s-9.397-3.015-9.397-10.213v-14.575h4.965v14.575c0,4.185,1.383,6.028,4.433,6.028s4.433-1.844,4.433-6.028v-14.575h4.965Z"/>
    <path class="cls-1" d="M343.609,503.702c5.78,0,8.937,2.057,8.937,6.419,0,2.518-1.276,4.255-3.227,5.213,2.518,.922,4.007,2.766,4.007,5.815,0,3.795-2.482,7.021-8.937,7.021h-8.972v-24.469h8.191Zm-3.227,9.682h3.298c2.73,0,3.9-1.064,3.9-2.802,0-1.702-.851-2.695-4.433-2.695h-2.766v5.497Zm0,10.603h3.582c2.979,0,4.396-1.135,4.396-3.227,0-2.306-1.524-3.191-4.857-3.191h-3.121v6.418Z"/>
    <path class="cls-1" d="M368.43,528.491c-5.496,0-9.361-3.334-9.361-10.815v-3.476c0-7.554,3.865-10.815,9.361-10.815,5.532,0,9.397,3.262,9.397,10.815v3.476c0,7.481-3.865,10.815-9.397,10.815Zm-4.397-10.815c0,4.681,1.525,6.631,4.397,6.631s4.433-1.95,4.433-6.631v-3.476c0-4.681-1.56-6.632-4.433-6.632s-4.397,1.951-4.397,6.632v3.476Z"/>
    <path class="cls-1" d="M403.604,503.702v14.539c0,7.234-3.972,10.249-9.397,10.249s-9.397-3.015-9.397-10.213v-14.575h4.965v14.575c0,4.185,1.383,6.028,4.433,6.028s4.433-1.844,4.433-6.028v-14.575h4.965Z"/>
  </g>
  <g>
    <path class="cls-1" d="M118.503,528.296h-4.965v-24.469h4.965v24.469Z"/>
    <path class="cls-1" d="M128.076,509.112l-4.752,4.043v-9.895h4.752v5.852Z"/>
    <path class="cls-1" d="M146.088,510.175c-1.063-1.666-2.34-2.482-4.822-2.482-2.234,0-3.439,1.029-3.439,2.695,0,1.915,1.56,2.767,4.822,3.582,5.106,1.276,7.411,3.191,7.411,7.518,0,4.007-2.694,7.128-8.439,7.128-4.291,0-7.27-1.171-9.433-4.007l3.794-2.625c1.312,1.632,2.802,2.447,5.319,2.447,2.837,0,3.795-1.241,3.795-2.73,0-1.702-1.028-2.66-5-3.688-4.823-1.276-7.234-3.581-7.234-7.624,0-3.865,2.553-6.879,8.369-6.879,3.9,0,6.844,1.312,8.581,4.007l-3.724,2.659Z"/>
  </g>
  <g>
    <path class="cls-1" d="M186.969,53.515v99.934h-12.899V53.515h12.899Z"/>
    <path class="cls-1" d="M256.805,51.884c-3.41,12.455-9.785,28.32-13.937,35.14l-8.304,1.038c3.262-8.748,7.117-24.168,8.748-34.844l13.492-1.334Z"/>
    <path class="cls-1" d="M293.723,137.732c5.782,3.559,14.234,6.524,23.13,6.524,13.196,0,20.906-6.969,20.906-17.051,0-9.341-5.338-14.679-18.83-19.868-16.31-5.783-26.393-14.234-26.393-28.319,0-15.568,12.899-27.134,32.323-27.134,10.23,0,17.644,2.373,22.092,4.893l-3.559,10.527c-3.262-1.779-9.934-4.745-18.979-4.745-13.641,0-18.83,8.155-18.83,14.975,0,9.341,6.079,13.938,19.868,19.275,16.903,6.524,25.503,14.679,25.503,29.357,0,15.42-11.417,28.765-34.992,28.765-9.638,0-20.164-2.817-25.502-6.376l3.262-10.824Z"/>
  </g>
  <g>
    <path class="cls-1" d="M138.911,318.223c1.835,0,2.097,0,3.539-.394l5.635,3.407c-.262,.524-.917,.918-1.572,1.18-5.505,7.34-13.105,13.237-22.148,17.824,12.712,3.538,27.391,5.636,42.725,6.553-1.835,1.835-3.801,5.111-4.85,7.339-17.168-1.441-33.42-4.587-47.181-9.566-11.533,4.587-24.639,7.601-38.007,9.698-.786-1.966-2.883-5.374-4.456-6.946,11.402-1.441,22.673-3.539,32.765-6.815-8.912-4.324-16.382-9.566-21.756-15.988h-.131c-7.47,11.795-17.562,22.41-30.405,29.75-1.572-1.704-4.718-4.325-6.814-5.636,16.906-9.043,28.832-23.591,35.909-39.317H48.351v-6.946h36.564c1.049-2.752,1.966-5.635,2.622-8.388l11.009,2.359c-.263,.917-1.311,1.441-2.884,1.572-.394,1.442-.917,3.015-1.441,4.456h71.558v6.946H91.6c-1.311,3.015-2.752,6.028-4.325,8.912h51.637Zm-31.847-21.625c-1.18-1.703-2.752-3.801-4.456-6.028-17.431,1.572-35.386,2.752-46.656,3.67-.132,.786-.787,1.441-1.704,1.572l-2.884-7.995c3.277-.131,6.946-.262,11.009-.524,1.835-3.146,3.933-7.208,5.505-10.878h-18.348v-6.029h11.532v-33.289h49.54v5.767h-41.545v5.636h38.138v5.373h-38.138v5.636h38.399v5.373h-38.399v5.504h46.001v6.029h-15.989c5.374,5.242,11.796,12.188,14.81,16.775l-6.814,3.407Zm-9.567-20.183h-19.527c-.394,.262-1.049,.393-1.704,.262-1.441,3.014-3.538,6.684-5.504,10.223,8.387-.524,17.692-1.049,27.129-1.704-1.967-2.228-3.933-4.325-5.898-6.16l5.505-2.621Zm-4.98,48.099c5.636,5.11,13.106,9.305,22.149,12.581,7.994-3.276,14.94-7.471,20.052-12.581h-42.201Zm74.965-46.133c-.393,.524-1.048,.787-2.358,.655-9.306,7.208-28.047,13.499-45.347,16.775-.917-1.704-2.883-4.456-4.324-6.029,16.775-2.883,35.386-8.912,44.69-16.906l7.339,5.504Zm-8.519-39.448c-.524,.655-1.441,.786-2.358,.655-7.077,6.291-21.494,12.45-34.861,15.858-.918-1.573-3.015-4.325-4.588-5.897,12.713-2.883,27.129-9.043,34.338-15.989l7.47,5.374Zm4.194,19.134c-.263,.393-.787,.655-1.311,.655-.263,0-.524,0-.918-.131-8.257,5.897-23.983,12.188-37.613,15.727-.917-1.573-2.884-4.063-4.587-5.505,13.368-3.276,29.226-9.698,37.482-16.12l6.946,5.374Z"/>
    <path class="cls-1" d="M264.995,334.736h54.651v8.912h-118.083v-8.912h54.127v-78.503h-47.705v-8.781h105.633v8.781h-48.623v78.503Z"/>
    <path class="cls-1" d="M473.516,305.117h-58.977c-.524,3.801-1.18,7.602-2.097,11.141h40.365l1.967-.263,5.11,.918c-.131,.917-.393,1.703-.523,2.621-2.884,31.716-5.505,34.468-18.61,34.468-3.801,0-9.043-.131-14.548-.393-.131-2.359-1.048-5.505-2.49-7.471,7.209,.655,14.154,.655,16.645,.655s3.67-.131,4.85-1.18c2.097-1.835,3.669-7.863,5.111-22.148h-39.973c-4.98,13.761-14.548,24.508-35.91,30.93-.917-2.097-3.146-5.242-4.98-6.815,26.605-7.339,33.682-22.148,36.172-42.463h-29.619c-1.572,15.989-5.897,33.289-16.775,46.264-1.572-1.572-5.242-4.062-7.339-4.98,14.679-17.299,16.382-41.545,16.382-59.631v-29.488h93.969v28.308h-36.827c-.262,.655-1.049,1.049-2.359,1.311v11.008h50.458v7.208Zm-.918-65.66v8.126h-116.51v-8.126h116.51Zm-95.672,46.132c0,3.277,0,4.718-.263,12.319h37.614v-12.319h-37.352Zm76.669-21.231h-76.669v14.023h76.669v-14.023Z"/>
  </g>
  <line class="cls-2" x1="5.035" y1="11.251" x2="495.574" y2="11.251"/>
  <line class="cls-2" x1="6.316" y1="199.332" x2="496.855" y2="199.332"/>
  <line class="cls-2" x1="9.933" y1="588.749" x2="496.158" y2="588.749"/>
  <line class="cls-2" x1="16.54" y1="402.64" x2="16.54" y2="194.344"/>
  <line class="cls-2" x1="6.316" y1="393.438" x2="496.855" y2="393.438"/>
  <line class="cls-3" x1="487.888" y1="598.455" x2="487.888" y2="383.329"/>
</svg>